<svg width="16" height="17" viewBox="0 0 16 17" fill="none" xmlns="http://www.w3.org/2000/svg">
<path d="M14.3652 13.3069C13.7222 13.8962 13.1971 14.3785 12.6613 14.8714C11.4826 13.1354 10.3788 11.5173 9.24293 9.84558C9.08219 9.99561 8.93217 10.1135 8.80358 10.2421C8.1499 10.8958 7.53909 11.6244 6.82111 12.1924C5.91025 12.9104 5.78166 13.8641 5.73879 14.8928C5.71736 15.5036 5.14941 16.2752 4.46359 16.5002C4.10996 15.4929 3.75633 14.4856 3.4027 13.4676C2.34181 13.0604 1.31308 12.6639 0.316488 12.2781C0.284339 11.7316 0.991596 10.9493 1.5274 10.8958C1.7953 10.8743 2.0632 10.81 2.3311 10.8422C3.28482 10.96 3.9385 10.5207 4.5386 9.83487C5.25657 9.02045 6.04956 8.28104 6.86398 7.45591C5.17085 6.32001 3.50986 5.20554 1.70957 3.99463C2.38468 3.44812 2.95263 2.97661 3.68132 2.39795C5.71736 2.89088 8.02131 3.45883 10.411 4.0375C11.1825 3.24451 11.9541 2.44081 12.7471 1.63711C12.9507 1.4335 13.1757 1.25133 13.4222 1.12274C14.0437 0.790543 14.8046 0.886987 15.2761 1.30491C15.7476 1.73355 15.9297 2.48367 15.6511 3.12664C15.5118 3.44812 15.2975 3.74816 15.051 3.99463C14.2795 4.7769 13.4758 5.53774 12.6721 6.30929C13.24 8.7204 13.808 11.0351 14.3652 13.3069Z" fill="white"/>
</svg>
