<svg width="29" height="37" viewBox="0 0 29 37" fill="none" xmlns="http://www.w3.org/2000/svg">
<path d="M28.6009 7.17054C28.3349 6.88372 27.9358 6.5969 27.5367 6.5969C24.4771 6.45349 20.6193 3.01163 18.0917 1.57752C16.4954 0.717054 15.4312 0.143411 14.633 0H14.1009C13.3028 0.143411 12.2385 0.717054 10.6422 1.57752C8.11468 3.01163 4.25688 6.45349 1.19725 6.5969C0.931193 6.74031 0.665138 6.88372 0.399083 7.17054C0.133028 7.60078 0 8.03101 0 8.46124C0.665138 22.8023 5.45413 31.6938 13.8349 36.8566C14.1009 37 14.2339 37 14.5 37C14.7661 37 15.0321 37 15.1651 36.8566C23.5459 31.6938 28.3349 22.8023 29 8.46124C29 8.03101 28.867 7.60078 28.6009 7.17054ZM22.4817 22.2287L15.8303 18.3566V22.9457L18.4908 25.0969V25.814L14.5 25.0969L10.5092 25.814V25.0969L13.1697 22.9457V18.3566L6.51835 22.2287V20.6512L13.1697 14.4845V8.60465C13.1697 7.74419 13.7018 7.17054 14.5 7.17054C15.2982 7.17054 15.8303 7.74419 15.8303 8.60465V14.4845L22.4817 20.6512V22.2287Z" fill="#01717F"/>
</svg>
