<svg width="19" height="19" viewBox="0 0 19 19" fill="none" xmlns="http://www.w3.org/2000/svg">
<path d="M9.5 0C12.0812 0 12.4032 0.00949994 13.4159 0.0569999C14.4276 0.1045 15.1164 0.26315 15.7225 0.49875C16.3495 0.74005 16.8777 1.06685 17.4059 1.5941C17.889 2.069 18.2628 2.64346 18.5012 3.2775C18.7359 3.88265 18.8955 4.57235 18.943 5.5841C18.9876 6.5968 19 6.91885 19 9.5C19 12.0812 18.9905 12.4032 18.943 13.4159C18.8955 14.4276 18.7359 15.1164 18.5012 15.7225C18.2634 16.3569 17.8896 16.9315 17.4059 17.4059C16.9309 17.8888 16.3564 18.2626 15.7225 18.5012C15.1173 18.7359 14.4276 18.8955 13.4159 18.943C12.4032 18.9876 12.0812 19 9.5 19C6.91885 19 6.5968 18.9905 5.5841 18.943C4.57235 18.8955 3.8836 18.7359 3.2775 18.5012C2.64321 18.2633 2.06865 17.8894 1.5941 17.4059C1.11094 16.9311 0.737135 16.3566 0.49875 15.7225C0.26315 15.1173 0.1045 14.4276 0.0569999 13.4159C0.0123499 12.4032 0 12.0812 0 9.5C0 6.91885 0.00949994 6.5968 0.0569999 5.5841C0.1045 4.5714 0.26315 3.8836 0.49875 3.2775C0.736474 2.64307 1.11036 2.06845 1.5941 1.5941C2.06879 1.11077 2.64331 0.736943 3.2775 0.49875C3.8836 0.26315 4.5714 0.1045 5.5841 0.0569999C6.5968 0.0123499 6.91885 0 9.5 0ZM9.5 4.75C8.24022 4.75 7.03204 5.25044 6.14124 6.14124C5.25044 7.03204 4.75 8.24022 4.75 9.5C4.75 10.7598 5.25044 11.968 6.14124 12.8588C7.03204 13.7496 8.24022 14.25 9.5 14.25C10.7598 14.25 11.968 13.7496 12.8588 12.8588C13.7496 11.968 14.25 10.7598 14.25 9.5C14.25 8.24022 13.7496 7.03204 12.8588 6.14124C11.968 5.25044 10.7598 4.75 9.5 4.75ZM15.675 4.5125C15.675 4.19756 15.5499 3.89551 15.3272 3.67281C15.1045 3.45011 14.8024 3.325 14.4875 3.325C14.1726 3.325 13.8705 3.45011 13.6478 3.67281C13.4251 3.89551 13.3 4.19756 13.3 4.5125C13.3 4.82744 13.4251 5.12949 13.6478 5.35219C13.8705 5.57489 14.1726 5.7 14.4875 5.7C14.8024 5.7 15.1045 5.57489 15.3272 5.35219C15.5499 5.12949 15.675 4.82744 15.675 4.5125ZM9.5 6.65C10.2559 6.65 10.9808 6.95027 11.5153 7.48475C12.0497 8.01922 12.35 8.74413 12.35 9.5C12.35 10.2559 12.0497 10.9808 11.5153 11.5153C10.9808 12.0497 10.2559 12.35 9.5 12.35C8.74413 12.35 8.01922 12.0497 7.48475 11.5153C6.95027 10.9808 6.65 10.2559 6.65 9.5C6.65 8.74413 6.95027 8.01922 7.48475 7.48475C8.01922 6.95027 8.74413 6.65 9.5 6.65Z" fill="#FF8A00"/>
</svg>
