<svg width="20" height="17" viewBox="0 0 20 17" fill="none" xmlns="http://www.w3.org/2000/svg">
<path d="M10 0C12.717 0 13.056 0.00849995 14.122 0.051C15.187 0.0935 15.912 0.23545 16.55 0.44625C17.21 0.66215 17.766 0.95455 18.322 1.4263C18.8305 1.85121 19.224 2.3652 19.475 2.9325C19.722 3.47395 19.89 4.09105 19.94 4.9963C19.987 5.9024 20 6.19055 20 8.5C20 10.8095 19.99 11.0976 19.94 12.0037C19.89 12.9089 19.722 13.5252 19.475 14.0675C19.2247 14.6351 18.8311 15.1492 18.322 15.5737C17.822 16.0058 17.2173 16.3402 16.55 16.5538C15.913 16.7637 15.187 16.9065 14.122 16.949C13.056 16.989 12.717 17 10 17C7.283 17 6.944 16.9915 5.878 16.949C4.813 16.9065 4.088 16.7637 3.45 16.5538C2.78233 16.3408 2.17753 16.0063 1.678 15.5737C1.16941 15.1489 0.775931 14.6348 0.525 14.0675C0.277 13.526 0.11 12.9089 0.0599999 12.0037C0.0129999 11.0976 0 10.8095 0 8.5C0 6.19055 0.00999994 5.9024 0.0599999 4.9963C0.11 4.0902 0.277 3.4748 0.525 2.9325C0.775236 2.36485 1.1688 1.85072 1.678 1.4263C2.17767 0.993847 2.78243 0.65937 3.45 0.44625C4.088 0.23545 4.812 0.0935 5.878 0.051C6.944 0.01105 7.283 0 10 0ZM10 4.25C8.67392 4.25 7.40215 4.69777 6.46447 5.4948C5.52678 6.29183 5 7.37283 5 8.5C5 9.62717 5.52678 10.7082 6.46447 11.5052C7.40215 12.3022 8.67392 12.75 10 12.75C11.3261 12.75 12.5979 12.3022 13.5355 11.5052C14.4732 10.7082 15 9.62717 15 8.5C15 7.37283 14.4732 6.29183 13.5355 5.4948C12.5979 4.69777 11.3261 4.25 10 4.25ZM16.5 4.0375C16.5 3.75571 16.3683 3.48546 16.1339 3.2862C15.8995 3.08694 15.5815 2.975 15.25 2.975C14.9185 2.975 14.6005 3.08694 14.3661 3.2862C14.1317 3.48546 14 3.75571 14 4.0375C14 4.31929 14.1317 4.58954 14.3661 4.7888C14.6005 4.98806 14.9185 5.1 15.25 5.1C15.5815 5.1 15.8995 4.98806 16.1339 4.7888C16.3683 4.58954 16.5 4.31929 16.5 4.0375ZM10 5.95C10.7956 5.95 11.5587 6.21866 12.1213 6.69688C12.6839 7.1751 13 7.8237 13 8.5C13 9.1763 12.6839 9.82491 12.1213 10.3031C11.5587 10.7813 10.7956 11.05 10 11.05C9.20435 11.05 8.44129 10.7813 7.87868 10.3031C7.31607 9.82491 7 9.1763 7 8.5C7 7.8237 7.31607 7.1751 7.87868 6.69688C8.44129 6.21866 9.20435 5.95 10 5.95Z" fill="#01717F"/>
</svg>
