<svg width="18" height="19" viewBox="0 0 18 19" fill="none" xmlns="http://www.w3.org/2000/svg">
<path d="M9 0C4.02938 0 0 4.25323 0 9.5C0 14.7468 4.02938 19 9 19C13.9706 19 18 14.7468 18 9.5C18 4.25323 13.9706 0 9 0ZM6.79687 13.4376H4.97437V7.24672H6.79687V13.4376ZM5.87437 6.48672C5.29875 6.48672 4.92656 6.05625 4.92656 5.52385C4.92656 4.98057 5.31 4.56297 5.89781 4.56297C6.48562 4.56297 6.84562 4.98057 6.85687 5.52385C6.85687 6.05625 6.48562 6.48672 5.87437 6.48672ZM13.4531 13.4376H11.6306V10.0067C11.6306 9.20807 11.3663 8.66578 10.7072 8.66578C10.2037 8.66578 9.90469 9.03292 9.7725 9.3862C9.72375 9.51188 9.71156 9.69 9.71156 9.86714V13.4366H7.88812V9.22094C7.88812 8.44807 7.86469 7.80187 7.84031 7.24573H9.42375L9.50719 8.10568H9.54375C9.78375 7.70193 10.3716 7.1062 11.355 7.1062C12.5541 7.1062 13.4531 7.95427 13.4531 9.77708V13.4376Z" fill="#FF8A00"/>
</svg>
