<svg width="19" height="17" viewBox="0 0 19 17" fill="none" xmlns="http://www.w3.org/2000/svg">
<path d="M9.5 0C4.25323 0 0 3.80552 0 8.5C0 13.1945 4.25323 17 9.5 17C14.7468 17 19 13.1945 19 8.5C19 3.80552 14.7468 0 9.5 0ZM7.17448 12.0231H5.25073V6.48391H7.17448V12.0231ZM6.20073 5.80391C5.59312 5.80391 5.20026 5.41875 5.20026 4.9424C5.20026 4.4563 5.605 4.08266 6.22547 4.08266C6.84594 4.08266 7.22594 4.4563 7.23781 4.9424C7.23781 5.41875 6.84594 5.80391 6.20073 5.80391ZM14.2005 12.0231H12.2768V8.95333C12.2768 8.2388 11.9977 7.75359 11.302 7.75359C10.7706 7.75359 10.4549 8.08208 10.3154 8.39818C10.264 8.51062 10.2511 8.67 10.2511 8.82849V12.0222H8.32635V8.25031C8.32635 7.5588 8.30161 6.98062 8.27589 6.48302H9.94729L10.0354 7.25245H10.074C10.3273 6.8912 10.9478 6.35818 11.9858 6.35818C13.2515 6.35818 14.2005 7.11698 14.2005 8.74792V12.0231Z" fill="#01717F"/>
</svg>
