<svg width="24" height="32" viewBox="0 0 24 32" fill="none" xmlns="http://www.w3.org/2000/svg">
<path d="M23.0832 11.0833C23.0832 9.62785 22.7965 8.18662 22.2395 6.84193C21.6825 5.49723 20.8661 4.27542 19.8369 3.24623C18.8078 2.21705 17.5859 1.40066 16.2412 0.843669C14.8966 0.286679 13.4553 0 11.9998 0C10.5444 0 9.10312 0.286679 7.75843 0.843669C6.41374 1.40066 5.19192 2.21705 4.16274 3.24623C3.13355 4.27542 2.31716 5.49723 1.76017 6.84193C1.20318 8.18662 0.916504 9.62785 0.916504 11.0833C0.916504 13.2794 1.56567 15.3219 2.66609 17.0446H2.65342C6.39009 22.895 11.9998 31.6667 11.9998 31.6667L21.3463 17.0446H21.3352C22.4758 15.2655 23.0825 13.1967 23.0832 11.0833ZM11.9998 15.8333C10.7401 15.8333 9.53188 15.3329 8.64108 14.4421C7.75028 13.5513 7.24984 12.3431 7.24984 11.0833C7.24984 9.82356 7.75028 8.61538 8.64108 7.72458C9.53188 6.83378 10.7401 6.33333 11.9998 6.33333C13.2596 6.33333 14.4678 6.83378 15.3586 7.72458C16.2494 8.61538 16.7498 9.82356 16.7498 11.0833C16.7498 12.3431 16.2494 13.5513 15.3586 14.4421C14.4678 15.3329 13.2596 15.8333 11.9998 15.8333Z" fill="#01717F"/>
</svg>
