<svg width="104" height="104" viewBox="0 0 104 104" fill="none" xmlns="http://www.w3.org/2000/svg">
<g clip-path="url(#clip0)">
<path d="M55.2349 70.93L73.7414 102.984C74.5931 104.459 76.7726 104.294 77.3926 102.708L80.5877 94.5297L89.2677 95.8516C90.9514 96.1082 92.1841 94.303 91.3326 92.8279L72.8261 60.7738L55.2349 70.93Z" fill="#01717F"/>
<path d="M48.7652 70.93L30.2587 102.984C29.407 104.459 27.2274 104.294 26.6075 102.708L23.4124 94.5297L14.7324 95.8516C13.0487 96.1082 11.816 94.303 12.6675 92.8279L31.174 60.7738L48.7652 70.93Z" fill="#01717F"/>
<path d="M62.7498 79.887C60.4065 79.887 58.164 78.7664 56.1301 77.7502C54.675 77.0232 53.0258 76.1989 52 76.1989C50.9742 76.1989 49.3246 77.0232 47.8695 77.7502C45.2292 79.0695 42.2372 80.5649 39.1296 79.5555C35.9137 78.5113 34.348 75.4733 32.9666 72.7931C32.2483 71.3995 31.4342 69.82 30.6877 69.2766C29.9189 68.717 28.1456 68.4243 26.5811 68.1659C23.6267 67.6782 20.2784 67.1255 18.3123 64.4237C16.3623 61.7449 16.8636 58.4062 17.3058 55.4605C17.5437 53.8777 17.8128 52.0835 17.51 51.1501C17.237 50.3096 16.0069 49.0693 14.9216 47.9751C12.7833 45.8191 10.3594 43.3753 10.3594 39.9437C10.3594 36.5121 12.7831 34.0681 14.9216 31.912C16.0069 30.8175 17.237 29.5772 17.51 28.7363C17.813 27.8029 17.5437 26.0087 17.3062 24.4258C16.864 21.4803 16.3627 18.1415 18.3127 15.4625C20.279 12.7609 23.6273 12.2082 26.5817 11.7205C28.1462 11.4624 29.9195 11.1697 30.6883 10.61C31.435 10.0667 32.2491 8.48739 32.9672 7.09375C34.3486 4.41351 35.9143 1.37557 39.1302 0.331512C42.2372 -0.678223 45.2296 0.817793 47.8699 2.13689C49.325 2.86387 50.9742 3.68815 52 3.68815C53.0258 3.68815 54.6754 2.86407 56.1305 2.13689C58.7708 0.817996 61.7632 -0.67741 64.8704 0.331715C68.0863 1.37598 69.652 4.41392 71.0334 7.09415C71.7517 8.48759 72.5658 10.0671 73.3123 10.6104C74.0811 11.1701 75.8544 11.4628 77.4189 11.7211C80.3733 12.2088 83.7216 12.7615 85.6877 15.4633C87.6377 18.1423 87.1364 21.4811 86.694 24.4268C86.4563 26.0096 86.1872 27.8036 86.49 28.7369C86.763 29.5775 87.9931 30.8177 89.0784 31.912C91.2167 34.0681 93.6406 36.5119 93.6406 39.9437C93.6406 43.3757 91.2167 45.8195 89.0784 47.9759C87.9929 49.0701 86.763 50.3104 86.49 51.1512C86.187 52.0845 86.4563 53.8787 86.6937 55.4617C87.1359 58.4072 87.6373 61.746 85.6873 64.425C83.721 67.1265 80.3725 67.6792 77.418 68.1669C75.8538 68.4251 74.0803 68.718 73.3115 69.2774C72.565 69.8208 71.7509 71.4001 71.0328 72.7937C69.6514 75.474 68.0857 78.5119 64.8698 79.556C64.1564 79.7875 63.4483 79.887 62.7498 79.887Z" fill="#2D2D2D"/>
<path d="M89.0784 47.9757C91.2167 45.8193 93.6406 43.3755 93.6406 39.9436C93.6406 36.5118 91.2167 34.068 89.0784 31.9118C87.9931 30.8175 86.763 29.5773 86.49 28.7367C86.1872 27.8034 86.4563 26.0094 86.694 24.4266C87.1364 21.4809 87.6377 18.1423 85.6877 15.4631C83.7216 12.7614 80.3733 12.2089 77.4189 11.721C75.8544 11.4628 74.0811 11.1699 73.3123 10.6103C72.5658 10.0669 71.7517 8.48761 71.0334 7.09397C69.652 4.41373 68.0863 1.3758 64.8704 0.331531C61.7632 -0.677797 58.7708 0.817812 56.1305 2.1367C54.6754 2.86389 53.0258 3.68797 52 3.68797V76.1989C53.0258 76.1989 54.675 77.0232 56.1301 77.7502C58.164 78.7664 60.4065 79.8871 62.7498 79.8871C63.4483 79.8871 64.1564 79.7875 64.87 79.5556C68.0859 78.5115 69.6516 75.4736 71.033 72.7933C71.7511 71.3999 72.5652 69.8204 73.3117 69.277C74.0805 68.7176 75.854 68.4249 77.4182 68.1665C80.3727 67.679 83.7212 67.1261 85.6875 64.4246C87.6375 61.7456 87.1362 58.4068 86.694 55.4613C86.4565 53.8783 86.1872 52.0841 86.4902 51.1508C86.763 50.3104 87.9929 49.07 89.0784 47.9757Z" fill="#2D2D2D"/>
<path d="M52 46.1134C50.3173 46.1134 48.9531 47.4776 48.9531 49.1603V63.3791H55.0469V49.1603C55.0469 47.4774 53.6827 46.1134 52 46.1134Z" fill="#F1F1F4"/>
<path d="M55.0469 63.3791V49.1603C55.0469 47.4776 53.6827 46.1134 52 46.1134V63.3791H55.0469Z" fill="#E2DFF4"/>
<path d="M59.1094 66.4259H44.8906C43.2079 66.4259 41.8438 65.0617 41.8438 63.3791C41.8438 61.6964 43.2079 60.3322 44.8906 60.3322H59.1094C60.7921 60.3322 62.1562 61.6964 62.1562 63.3791C62.1562 65.0617 60.7921 66.4259 59.1094 66.4259Z" fill="#E2DFF4"/>
<path d="M59.1094 60.3322H52V66.4259H59.1094C60.7921 66.4259 62.1562 65.0617 62.1562 63.3791C62.1562 61.6964 60.7921 60.3322 59.1094 60.3322Z" fill="#D5D3EA"/>
<path d="M68.2563 30.0837L64.4122 17.7828C64.0147 16.5108 62.8367 15.6447 61.504 15.6447H42.4964C41.1637 15.6447 39.9858 16.5108 39.5883 17.7828L35.7441 30.0837V36.8124H68.2563V30.0837Z" fill="#F1F1F4"/>
<path d="M68.2561 30.0837L64.412 17.7828C64.0144 16.5108 62.8365 15.6447 61.5038 15.6447H52V36.8124H68.2561V30.0837Z" fill="#E2DFF4"/>
<path d="M68.2588 30.0922L68.2561 30.0834C60.174 30.1533 60.295 32.9635 52 32.9635C43.705 32.9635 43.8263 30.1533 35.7439 30.0834L35.7413 30.0922C34.1076 35.3202 35.0314 40.8497 38.2759 45.2628C41.5204 49.6761 46.5228 52.207 52.0002 52.207C57.4777 52.207 62.48 49.6758 65.7246 45.2628C68.9689 40.8497 69.8927 35.3202 68.2588 30.0922Z" fill="#B12A4B"/>
<path d="M68.2587 30.0922L68.2561 30.0834C60.174 30.1533 60.295 32.9635 52 32.9635V52.207C57.4775 52.207 62.4798 49.6758 65.7243 45.2628C68.9689 40.8497 69.8927 35.3202 68.2587 30.0922Z" fill="#B12A4B"/>
</g>
<defs>
<clipPath id="clip0">
<rect width="104" height="104" fill="white"/>
</clipPath>
</defs>
</svg>
